<?xml version="1.0" encoding="utf-8"?>
<!-- Generator: Adobe Illustrator 19.0.0, SVG Export Plug-In . SVG Version: 6.00 Build 0)  -->
<svg version="1.1" id="Layer_1" xmlns="http://www.w3.org/2000/svg" xmlns:xlink="http://www.w3.org/1999/xlink" x="0px" y="0px"
	 viewBox="-346.5 35.2 400.2 123.8" style="enable-background:new -346.5 35.2 400.2 123.8;" xml:space="preserve">
<style type="text/css">
	.st0{fill:#EF6923;}
	.st1{fill:#2767A7;}
	.st2{fill:#040404;}
</style>
<g>
	<path class="st0" d="M-303.9,88c0-1.2-0.1-2.4-0.4-3.5c-0.1-0.6-0.3-1.2-0.5-1.7c-0.2-0.6-0.5-1.1-0.8-1.6c-0.3-0.5-0.7-1-1.1-1.5
		c-0.4-0.5-0.8-0.9-1.3-1.3c-0.5-0.4-1-0.7-1.5-1c-0.5-0.3-1.1-0.5-1.6-0.7c-0.6-0.2-1.2-0.4-1.7-0.5c-0.6-0.1-1.2-0.1-1.8-0.1
		c-6.9,0-12.4,6.4-12.4,17.5c0,9.2,4.5,16.3,12.4,16.3c0.6,0,1.1,0,1.7-0.1c0.6-0.1,1.1-0.2,1.7-0.4c0.5-0.2,1.1-0.4,1.6-0.7
		c0.5-0.3,1-0.6,1.4-0.9c0.5-0.3,0.9-0.7,1.3-1.1c0.4-0.4,0.8-0.9,1.1-1.3c0.3-0.5,0.6-1,0.8-1.5c0.2-0.5,0.4-1.1,0.6-1.6
		c0.4-1.6,0.6-3.3,0.6-4.9V88z M-284.2,62.9c-0.3,4-0.5,9.1-0.5,18.3v34.2c0,11.8-2.4,21.5-9.3,27.7c-7,6.2-15.9,7.5-24.9,7.5
		c-3.8,0.1-7.6-0.2-11.4-1c-3.7-0.8-7.4-2-10.8-3.6l3.8-14.5c2.7,1.5,5.6,2.6,8.6,3.4c3,0.8,6.1,1.2,9.2,1.2c9,0,16-4.8,16-16.2v-4
		h-0.3c-1,1.3-2.1,2.4-3.3,3.4c-1.2,1-2.6,1.9-4,2.6s-2.9,1.2-4.5,1.5c-1.6,0.3-3.1,0.5-4.7,0.4c-15.2,0-26-12.4-26-29.8
		c0-19.9,12.8-32.3,27.9-32.3c1.7-0.1,3.3,0,4.9,0.4s3.2,0.9,4.7,1.7c1.5,0.8,2.8,1.7,4.1,2.8c1.2,1.1,2.3,2.4,3.2,3.8h0.3l0.6-7.4
		L-284.2,62.9z"/>
	<path class="st0" d="M-258.2,93.8c0,10.5,4.4,18.5,12.6,18.5c7.4,0,12.2-7.5,12.2-18.6c0-9.1-3.5-18.4-12.1-18.4
		C-254.7,75.2-258.2,84.6-258.2,93.8L-258.2,93.8z M-213.8,93.1c0,22.4-15.9,32.8-32.3,32.8c-17.9,0-31.8-11.8-31.8-31.8
		s13-32.6,32.8-32.6C-226.3,61.5-213.8,74.5-213.8,93.1z"/>
	<path class="st1" d="M-206.9,124.4V62.9h19.2v61.5L-206.9,124.4L-206.9,124.4z M-187.2,45.9c0,0.6,0,1.2-0.2,1.9
		c-0.1,0.6-0.3,1.2-0.5,1.8c-0.2,0.6-0.5,1.1-0.9,1.6c-0.3,0.5-0.7,1-1.2,1.4c-0.4,0.4-0.9,0.8-1.4,1.2c-0.5,0.4-1.1,0.6-1.6,0.9
		c-0.6,0.2-1.2,0.4-1.8,0.6c-0.6,0.1-1.2,0.2-1.8,0.2h-0.9c-0.6,0-1.2,0-1.8-0.1c-0.6-0.1-1.2-0.2-1.8-0.4c-0.6-0.2-1.1-0.4-1.7-0.8
		s-1-0.7-1.5-1.1c-0.5-0.4-0.9-0.8-1.3-1.3c-0.4-0.5-0.7-1-1-1.5c-0.3-0.5-0.5-1.1-0.6-1.7s-0.3-1.2-0.3-1.8V46c0-0.7,0.1-1.3,0.2-2
		c0.1-0.7,0.3-1.3,0.6-1.9c0.3-0.6,0.6-1.2,0.9-1.8c0.4-0.6,0.8-1.1,1.3-1.5c0.5-0.5,1-0.9,1.5-1.3c0.6-0.4,1.1-0.7,1.8-0.9
		c0.6-0.3,1.2-0.4,1.9-0.6c0.7-0.1,1.3-0.2,2-0.2c0.7,0,1.3,0.1,2,0.2c0.7,0.1,1.3,0.3,1.9,0.6c0.6,0.3,1.2,0.6,1.8,0.9
		c0.6,0.4,1.1,0.8,1.5,1.3c0.5,0.5,0.9,1,1.3,1.5c0.4,0.6,0.7,1.1,0.9,1.8c0.3,0.6,0.4,1.2,0.6,1.9c0.1,0.7,0.2,1.3,0.2,2
		L-187.2,45.9z"/>
	<path class="st1" d="M-158.2,98.4c0,1.1,0.1,2.3,0.3,3.4c0.1,0.6,0.3,1.3,0.6,1.9c0.2,0.6,0.5,1.2,0.9,1.7c0.3,0.6,0.7,1.1,1.2,1.6
		c0.4,0.5,0.9,0.9,1.4,1.3c0.5,0.4,1,0.8,1.6,1.1c0.6,0.3,1.2,0.6,1.8,0.8c0.6,0.2,1.2,0.4,1.9,0.5c0.6,0.1,1.3,0.2,1.9,0.2
		c8.1,0,13.2-6.3,13.2-17.4c0-9.6-4.3-17-13.2-17c-0.7,0-1.3,0.1-2,0.2c-0.6,0.1-1.3,0.3-1.9,0.5c-0.6,0.2-1.2,0.5-1.8,0.9
		c-0.6,0.3-1.1,0.7-1.6,1.1c-0.5,0.4-1,0.9-1.4,1.4c-0.4,0.5-0.8,1-1.1,1.6c-0.3,0.6-0.6,1.2-0.9,1.8c-0.2,0.6-0.4,1.3-0.5,1.9
		c-0.3,1.2-0.4,2.4-0.4,3.6L-158.2,98.4L-158.2,98.4z M-177.9,124.4c0.3-4.1,0.5-11.4,0.5-18.3V35.2h19.1v35h0.2
		c1.1-1.4,2.3-2.7,3.7-3.8c1.4-1.1,2.9-2.1,4.5-2.8c1.6-0.8,3.3-1.3,5.1-1.6c1.8-0.3,3.5-0.5,5.3-0.4c14.9,0,25.5,12.2,25.4,31
		c0,22.1-14,33.2-28.1,33.2c-0.9,0-1.8,0-2.7-0.1c-0.9-0.1-1.8-0.2-2.7-0.4c-0.9-0.2-1.8-0.5-2.6-0.8c-0.9-0.3-1.7-0.7-2.5-1.1
		c-0.8-0.4-1.6-0.9-2.3-1.5c-0.7-0.5-1.4-1.1-2.1-1.8c-0.7-0.6-1.3-1.3-1.8-2c-0.6-0.7-1.1-1.5-1.6-2.3h-0.2l-0.8,8.7L-177.9,124.4z
		"/>
	<path class="st1" d="M-107.2,124.4V62.9H-88v61.5L-107.2,124.4L-107.2,124.4z M-87.5,45.9c0,0.7-0.1,1.3-0.2,2
		c-0.1,0.7-0.3,1.3-0.6,1.9c-0.3,0.6-0.6,1.2-0.9,1.8c-0.4,0.6-0.8,1.1-1.3,1.5c-0.5,0.5-1,0.9-1.5,1.3c-0.6,0.4-1.1,0.7-1.7,0.9
		c-0.6,0.3-1.2,0.4-1.9,0.6s-1.3,0.2-2,0.2c-0.7,0-1.3-0.1-2-0.2c-0.7-0.1-1.3-0.3-1.9-0.6s-1.2-0.6-1.7-0.9
		c-0.6-0.4-1.1-0.8-1.5-1.3c-0.5-0.5-0.9-1-1.3-1.5c-0.4-0.6-0.7-1.1-0.9-1.8c-0.3-0.6-0.4-1.2-0.6-1.9c-0.1-0.7-0.2-1.3-0.2-2
		c0-0.7,0.1-1.3,0.2-2c0.1-0.7,0.3-1.3,0.6-1.9c0.3-0.6,0.6-1.2,0.9-1.7c0.4-0.6,0.8-1.1,1.3-1.5c0.5-0.5,1-0.9,1.5-1.3
		c0.6-0.4,1.1-0.7,1.7-0.9c0.6-0.3,1.2-0.4,1.9-0.6c0.7-0.1,1.3-0.2,2-0.2c0.7,0,1.3,0.1,2,0.2c0.7,0.1,1.3,0.3,1.9,0.6
		c0.6,0.3,1.2,0.6,1.8,0.9c0.6,0.4,1.1,0.8,1.5,1.3c0.5,0.5,0.9,1,1.3,1.5c0.4,0.6,0.7,1.1,0.9,1.7c0.3,0.6,0.4,1.2,0.6,1.9
		C-87.5,44.5-87.5,45.2-87.5,45.9L-87.5,45.9z"/>
	<path class="st1" d="M-58.5,98.4c0,1.1,0.1,2.3,0.3,3.4c0.1,0.6,0.3,1.3,0.6,1.9c0.2,0.6,0.5,1.2,0.9,1.7c0.3,0.6,0.7,1.1,1.2,1.6
		c0.4,0.5,0.9,0.9,1.4,1.3c0.5,0.4,1,0.8,1.6,1.1c0.6,0.3,1.2,0.6,1.8,0.8c0.6,0.2,1.2,0.4,1.9,0.5c0.6,0.1,1.3,0.2,1.9,0.2
		c8.1,0,13.2-6.3,13.2-17.4c0-9.6-4.3-17.1-13.2-17.1c-0.7,0-1.3,0.1-2,0.2c-0.7,0.1-1.3,0.3-1.9,0.5c-0.6,0.2-1.2,0.5-1.8,0.9
		c-0.6,0.3-1.1,0.7-1.6,1.1c-0.5,0.4-1,0.9-1.4,1.4s-0.8,1-1.1,1.6c-0.3,0.6-0.6,1.2-0.9,1.8c-0.2,0.6-0.4,1.3-0.5,1.9
		c-0.2,1.2-0.4,2.3-0.4,3.5L-58.5,98.4L-58.5,98.4z M-78.1,124.4c0.3-4.1,0.5-11.4,0.5-18.3V35.2h19.1v35h0.3
		c1.1-1.4,2.3-2.7,3.7-3.8c1.4-1.1,2.9-2.1,4.5-2.8c1.6-0.8,3.3-1.3,5.1-1.6c1.8-0.3,3.5-0.5,5.3-0.4c14.9,0,25.5,12.2,25.4,31
		c0,22.1-14,33.2-28.1,33.2c-0.9,0-1.8,0-2.7-0.1c-0.9-0.1-1.8-0.2-2.7-0.4c-0.9-0.2-1.8-0.5-2.6-0.8c-0.9-0.3-1.7-0.7-2.5-1.1
		c-0.8-0.4-1.6-0.9-2.3-1.5c-0.7-0.5-1.4-1.1-2.1-1.8c-0.7-0.6-1.3-1.3-1.8-2c-0.6-0.7-1.1-1.5-1.6-2.3h-0.3l-0.8,8.7L-78.1,124.4z"
		/>
	<path class="st1" d="M9.2,93.8c0,10.5,4.4,18.5,12.6,18.5c7.5,0,12.2-7.5,12.2-18.6c0-9.1-3.5-18.4-12.2-18.4
		C12.6,75.2,9.2,84.6,9.2,93.8z M53.6,93.1c0,22.4-15.9,32.8-32.3,32.8C3.4,125.8-10.5,114-10.5,94s13-32.5,32.8-32.5
		C41.1,61.5,53.6,74.5,53.6,93.1z"/>
	<path class="st2" d="M-44.8,154.5c0-0.3,0-0.6,0.1-0.9c0.1-0.3,0.1-0.6,0.3-0.8c0.1-0.3,0.3-0.5,0.4-0.8c0.2-0.2,0.3-0.5,0.6-0.7
		c0.2-0.2,0.4-0.4,0.7-0.5c0.2-0.2,0.5-0.3,0.8-0.4c0.3-0.1,0.5-0.2,0.8-0.2c0.3-0.1,0.6-0.1,0.9-0.1c0.3,0,0.6,0,0.9,0.1
		c0.3,0.1,0.6,0.1,0.8,0.3c0.3,0.1,0.5,0.2,0.8,0.4c0.2,0.2,0.5,0.3,0.7,0.6c0.2,0.2,0.4,0.4,0.5,0.7c0.2,0.2,0.3,0.5,0.4,0.8
		c0.1,0.3,0.2,0.5,0.2,0.8c0.1,0.3,0.1,0.6,0.1,0.9c0,0.3,0,0.6-0.1,0.9c-0.1,0.3-0.1,0.6-0.3,0.8c-0.1,0.3-0.2,0.5-0.4,0.8
		c-0.2,0.2-0.3,0.5-0.5,0.7c-0.2,0.2-0.4,0.4-0.7,0.5c-0.2,0.2-0.5,0.3-0.8,0.4c-0.3,0.1-0.5,0.2-0.8,0.2c-0.3,0.1-0.6,0.1-0.9,0.1
		c-0.3,0-0.6,0-0.8-0.1c-0.3,0-0.5-0.1-0.8-0.2c-0.3-0.1-0.5-0.2-0.7-0.4c-0.2-0.1-0.5-0.3-0.7-0.5s-0.4-0.4-0.6-0.6
		c-0.2-0.2-0.3-0.5-0.4-0.7c-0.1-0.3-0.2-0.5-0.3-0.8c-0.1-0.3-0.1-0.5-0.1-0.8V154.5z"/>
	<path class="st2" d="M-13.7,157.9c-2.1,0.8-4.4,1.2-6.7,1.1c-0.4,0-0.8,0.1-1.2,0c-0.4,0-0.8,0-1.2-0.1c-0.4-0.1-0.8-0.1-1.2-0.2
		c-0.4-0.1-0.8-0.2-1.2-0.4c-0.4-0.1-0.8-0.3-1.1-0.5c-0.4-0.2-0.7-0.4-1.1-0.6c-0.4-0.2-0.7-0.5-1-0.7c-0.3-0.3-0.6-0.5-0.9-0.8
		c-0.3-0.3-0.6-0.6-0.8-0.9c-0.3-0.3-0.5-0.6-0.7-1c-0.2-0.3-0.4-0.7-0.6-1.1c-0.2-0.4-0.4-0.7-0.5-1.1c-0.2-0.4-0.3-0.8-0.4-1.2
		c-0.1-0.4-0.2-0.8-0.3-1.2c-0.1-0.4-0.1-0.8-0.1-1.2c0-0.4,0-0.8,0-1.2c0-7,4.8-12.6,13.6-12.6c1.9,0,3.8,0.3,5.6,0.9l-1.1,5.5
		c-1.3-0.6-2.7-0.8-4.1-0.8c-0.5,0-0.9,0-1.4,0c-0.5,0.1-0.9,0.2-1.3,0.3c-0.4,0.2-0.8,0.4-1.2,0.6c-0.4,0.2-0.8,0.5-1.1,0.8
		c-0.3,0.3-0.6,0.7-0.9,1c-0.3,0.4-0.5,0.8-0.7,1.2c-0.2,0.4-0.3,0.9-0.4,1.3c-0.1,0.4-0.1,0.9-0.1,1.4c0,0.5,0,0.9,0.1,1.4
		c0.1,0.4,0.2,0.9,0.4,1.3c0.2,0.4,0.4,0.8,0.7,1.2c0.3,0.4,0.6,0.7,0.9,1c0.3,0.3,0.7,0.6,1.1,0.8c0.4,0.2,0.8,0.4,1.2,0.6
		c0.4,0.2,0.9,0.3,1.3,0.3c0.5,0.1,0.9,0.1,1.4,0c1.5,0,2.9-0.2,4.3-0.8L-13.7,157.9z"/>
	<path class="st2" d="M-4.1,146.6c0,4.1,1.7,7.1,5,7.1c3.3,0,4.7-2.9,4.7-7.2c0-3.5-1.4-7.1-4.7-7.1c-3.3,0-4.8,3.6-4.8,7.1
		L-4.1,146.6L-4.1,146.6z M13.3,146.3c0.1,0.8,0,1.6-0.1,2.3c-0.1,0.8-0.3,1.5-0.5,2.3c-0.3,0.7-0.6,1.5-1,2.1
		c-0.4,0.7-0.9,1.3-1.4,1.9c-0.5,0.6-1.1,1.1-1.7,1.6c-0.6,0.5-1.3,0.9-2,1.2c-0.7,0.3-1.4,0.6-2.2,0.8c-0.8,0.2-1.5,0.3-2.3,0.4
		H0.8c-0.4,0-0.8,0-1.2,0c-0.4,0-0.8-0.1-1.2-0.1c-0.4-0.1-0.8-0.1-1.2-0.2c-0.4-0.1-0.8-0.2-1.2-0.4c-0.4-0.1-0.8-0.3-1.1-0.5
		c-0.4-0.2-0.7-0.4-1.1-0.6c-0.3-0.2-0.7-0.5-1-0.7c-0.3-0.3-0.6-0.5-0.9-0.8c-0.3-0.3-0.6-0.6-0.8-0.9c-0.3-0.3-0.5-0.6-0.7-1
		c-0.2-0.3-0.4-0.7-0.6-1.1c-0.2-0.4-0.4-0.7-0.5-1.1c-0.2-0.4-0.3-0.8-0.4-1.2c-0.1-0.4-0.2-0.8-0.3-1.2c-0.1-0.4-0.1-0.8-0.1-1.2
		c0-0.4,0-0.8,0-1.2c0-0.8,0-1.6,0.1-2.3s0.3-1.5,0.5-2.3c0.3-0.7,0.6-1.4,1-2.1c0.4-0.7,0.8-1.3,1.4-1.9c0.5-0.6,1.1-1.1,1.7-1.6
		c0.6-0.5,1.3-0.9,2-1.2c0.7-0.3,1.4-0.6,2.2-0.8c0.8-0.2,1.5-0.3,2.3-0.4h1.6c0.8,0,1.5,0,2.3,0.1c0.8,0.1,1.5,0.3,2.2,0.5
		c0.7,0.3,1.4,0.6,2,1c0.7,0.4,1.3,0.8,1.8,1.3c0.6,0.5,1.1,1.1,1.5,1.7c0.5,0.6,0.8,1.3,1.2,1.9c0.3,0.7,0.6,1.4,0.8,2.1
		c0.2,0.7,0.3,1.5,0.3,2.2C13.2,145.5,13.3,145.9,13.3,146.3L13.3,146.3z"/>
	<path class="st2" d="M17.8,142.3c0-2.9,0-5.5-0.2-7.6h6.3l0.3,3.2h0.2c0.4-0.6,0.8-1.1,1.4-1.6c0.5-0.5,1.1-0.9,1.7-1.2
		c0.6-0.3,1.3-0.6,2-0.7c0.7-0.2,1.4-0.2,2.1-0.2c0.7,0,1.4,0,2,0.2c0.7,0.2,1.3,0.4,1.9,0.8c0.6,0.4,1.1,0.8,1.6,1.3
		c0.4,0.5,0.8,1.1,1.1,1.7c0.8-1.2,1.9-2.1,3.1-2.9c1.4-0.8,2.9-1.2,4.5-1.2c4.5,0,8,3.2,8,10.3v13.9h-7.2v-12.8
		c0-3.4-1.1-5.4-3.5-5.4c-0.4,0-0.7,0.1-1.1,0.2c-0.4,0.1-0.7,0.3-1,0.5c-0.3,0.2-0.6,0.5-0.8,0.8c-0.2,0.3-0.4,0.6-0.5,1
		c-0.2,0.6-0.3,1.2-0.3,1.9v13.9h-7.2v-13.3c0-2.9-1.1-4.9-3.4-4.9c-0.4,0-0.8,0.1-1.1,0.2c-0.4,0.1-0.7,0.3-1,0.5
		c-0.3,0.2-0.6,0.5-0.8,0.8c-0.2,0.3-0.4,0.7-0.5,1c-0.2,0.6-0.3,1.2-0.3,1.9v13.7h-7.2L17.8,142.3z"/>
</g>
</svg>
